<?xml version="1.0" encoding="UTF-8" standalone="no"?>
<svg
   width="192.75"
   height="133.92"
   viewBox="0 0 192.74999 133.92"
   fill="none"
   version="1.1"
   id="svg6"
   sodipodi:docname="logo-black.svg"
   inkscape:version="1.4.3 (0d15f75, 2025-12-25)"
   xmlns:inkscape="http://www.inkscape.org/namespaces/inkscape"
   xmlns:sodipodi="http://sodipodi.sourceforge.net/DTD/sodipodi-0.dtd"
   xmlns="http://www.w3.org/2000/svg"
   xmlns:svg="http://www.w3.org/2000/svg">
  <sodipodi:namedview
     id="namedview6"
     pagecolor="#ffffff"
     bordercolor="#000000"
     borderopacity="0.25"
     inkscape:showpageshadow="2"
     inkscape:pageopacity="0.0"
     inkscape:pagecheckerboard="0"
     inkscape:deskcolor="#d1d1d1"
     inkscape:zoom="0.78363636"
     inkscape:cx="202.26218"
     inkscape:cy="68.271462"
     inkscape:window-width="960"
     inkscape:window-height="537"
     inkscape:window-x="-8"
     inkscape:window-y="-8"
     inkscape:window-maximized="1"
     inkscape:current-layer="svg6" />
  <g
     clip-path="url(#clip0_3252_53672)"
     id="g5"
     style="fill:#241c1c"
     transform="translate(0,-32.5)">
    <path
       d="M 149.721,68.8057 134.488,32.5 h -29.865 l 18.323,43.7002 c 13.176,-3.9946 22.178,-6.2949 26.772,-7.3945 z m -33.019,34.7383 c -5.632,3.184 -18.6087,11.109 -29.6198,22.23 l 12.1509,25.953 c 13.0769,0.147 26.1169,1.036 38.8019,2.669 z M 9.6463,163.306 c 2.092,-0.623 4.21,-1.221 6.351,-1.792 0.0837,-0.023 0.1645,-0.044 0.2482,-0.067 1.0244,-0.274 2.0545,-0.539 3.0875,-0.802 0.0519,-0.014 0.1068,-0.026 0.1587,-0.04 2.2132,-0.557 4.4524,-1.091 6.7088,-1.596 5.2805,-1.184 10.6736,-2.226 16.1561,-3.12 22.4638,-29.212 48.1767,-48.249 86.6114,-65.3184 l 28.036,66.8704 c 11.808,2.301 23.128,5.294 33.66,8.976 L 154.485,80.1774 c 10.87,-4.0956 22.631,-8.1709 35.429,-12.3559 l 2.836,-4.4101 c -27.28,5.553 -56.236,12.9706 -83.363,22.7 L 86.9004,32.5 H 58.7348 L 0.657899,164.922 C 0.432829,165.419 0.213529,165.918 0,166.42 c 0.949337,-0.332 1.90733,-0.655 2.86821,-0.978 0.27701,-0.092 0.55402,-0.182 0.83103,-0.274 0.71849,-0.237 1.43699,-0.471 2.16126,-0.699 0.28278,-0.089 0.56267,-0.179 0.84546,-0.265 0.82525,-0.257 1.6534,-0.514 2.48732,-0.762 0.15004,-0.046 0.2972,-0.093 0.44725,-0.136 z M 64.5434,77.6346 75.1332,100.254 c -10.2407,4.88 -19.9101,10.185 -28.7629,15.949 z"
       fill="white"
       id="path1"
       style="fill:#241c1c" />
    <mask
       id="mask0_3252_53672"
       maskUnits="userSpaceOnUse"
       x="0"
       y="32"
       width="193"
       height="135">
      <path
         d="M 149.721,68.8057 134.488,32.5 h -29.865 l 18.323,43.7002 c 13.176,-3.9946 22.178,-6.2949 26.772,-7.3945 z m -33.019,34.7383 c -5.632,3.184 -18.6087,11.109 -29.6198,22.23 l 12.1509,25.953 c 13.0769,0.147 26.1169,1.036 38.8019,2.669 z M 9.6463,163.306 c 2.092,-0.623 4.21,-1.221 6.351,-1.792 0.0837,-0.023 0.1645,-0.044 0.2482,-0.067 1.0244,-0.274 2.0545,-0.539 3.0875,-0.802 0.0519,-0.014 0.1068,-0.026 0.1587,-0.04 2.2132,-0.557 4.4524,-1.091 6.7088,-1.596 5.2805,-1.184 10.6736,-2.226 16.1561,-3.12 22.4638,-29.212 48.1767,-48.249 86.6114,-65.3184 l 28.036,66.8704 c 11.808,2.301 23.128,5.294 33.66,8.976 L 154.485,80.1774 c 10.87,-4.0956 22.631,-8.1709 35.429,-12.3559 l 2.836,-4.4101 c -27.28,5.553 -56.236,12.9706 -83.363,22.7 L 86.9004,32.5 H 58.7348 L 0.657899,164.922 C 0.432829,165.419 0.213529,165.918 0,166.42 c 0.949337,-0.332 1.90733,-0.655 2.86821,-0.978 0.27701,-0.092 0.55402,-0.182 0.83103,-0.274 0.71849,-0.237 1.43699,-0.471 2.16126,-0.699 0.28278,-0.089 0.56267,-0.179 0.84545,-0.265 0.82526,-0.257 1.65341,-0.514 2.48733,-0.762 0.15004,-0.046 0.2972,-0.093 0.44725,-0.136 z M 64.5434,77.6346 75.1332,100.254 c -10.2407,4.88 -19.9101,10.185 -28.7629,15.949 z"
         fill="url(#paint0_linear_3252_53672)"
         id="path2" />
    </mask>
    <g
       mask="url(#mask0_3252_53672)"
       id="g3"
       style="fill:#241c1c">
      <path
         opacity="0.1"
         d="m 197.632,74.112 1.889,-14.1905 C 172.35,64.1952 27.6277,87.5813 0.216325,166.472 14.0456,161.826 27.1101,157.962 41.8158,156.13 86.7568,100.749 124.293,89.7459 197.632,74.112 Z"
         fill="white"
         id="path3"
         style="fill:#241c1c" />
    </g>
    <path
       d="m 189.938,67.8538 2.645,-4.3294 C 166.854,68.8159 31.4762,95.0328 0.216797,166.227 13.2015,161.176 28.3503,158.29 42.2968,155.885 82.6936,101.046 149.3,81.8041 189.938,67.8538 Z"
       fill="white"
       id="path4"
       style="fill:#241c1c" />
  </g>
  <defs
     id="defs6">
    <linearGradient
       id="paint0_linear_3252_53672"
       x1="133.67"
       y1="39.715698"
       x2="34.091702"
       y2="147.202"
       gradientUnits="userSpaceOnUse">
      <stop
         stop-color="#B67EFF"
         id="stop5" />
      <stop
         offset="1"
         stop-color="#FF6335"
         id="stop6" />
    </linearGradient>
    <clipPath
       id="clip0_3252_53672">
      <rect
         width="1100"
         height="200"
         fill="#ffffff"
         id="rect6"
         x="0"
         y="0" />
    </clipPath>
  </defs>
</svg>
