<?xml version="1.0" encoding="UTF-8" standalone="no"?>
<svg
   width="1097.29"
   height="134.18201"
   viewBox="0 0 1097.29 134.18201"
   fill="none"
   version="1.1"
   id="svg6"
   sodipodi:docname="logo-eng-horizon-black.svg"
   inkscape:version="1.4.3 (0d15f75, 2025-12-25)"
   xmlns:inkscape="http://www.inkscape.org/namespaces/inkscape"
   xmlns:sodipodi="http://sodipodi.sourceforge.net/DTD/sodipodi-0.dtd"
   xmlns="http://www.w3.org/2000/svg"
   xmlns:svg="http://www.w3.org/2000/svg">
  <sodipodi:namedview
     id="namedview6"
     pagecolor="#ffffff"
     bordercolor="#000000"
     borderopacity="0.25"
     inkscape:showpageshadow="2"
     inkscape:pageopacity="0.0"
     inkscape:pagecheckerboard="0"
     inkscape:deskcolor="#d1d1d1"
     inkscape:zoom="0.78363636"
     inkscape:cx="322.21578"
     inkscape:cy="68.271462"
     inkscape:window-width="1920"
     inkscape:window-height="1017"
     inkscape:window-x="-8"
     inkscape:window-y="-8"
     inkscape:window-maximized="1"
     inkscape:current-layer="svg6" />
  <g
     clip-path="url(#clip0_3252_53672)"
     id="g5"
     style="fill:#241c1c"
     transform="translate(0,-32.5)">
    <path
       d="M 149.721,68.8057 134.488,32.5 h -29.865 l 18.323,43.7002 c 13.176,-3.9946 22.178,-6.2949 26.772,-7.3945 z m -33.019,34.7383 c -5.632,3.184 -18.6087,11.109 -29.6198,22.23 l 12.1509,25.953 c 13.0769,0.147 26.1169,1.036 38.8019,2.669 z M 9.6463,163.306 c 2.092,-0.623 4.21,-1.221 6.351,-1.792 0.0837,-0.023 0.1645,-0.044 0.2482,-0.067 1.0244,-0.274 2.0545,-0.539 3.0875,-0.802 0.0519,-0.014 0.1068,-0.026 0.1587,-0.04 2.2132,-0.557 4.4524,-1.091 6.7088,-1.596 5.2805,-1.184 10.6736,-2.226 16.1561,-3.12 22.4638,-29.212 48.1767,-48.249 86.6114,-65.3184 l 28.036,66.8704 c 11.808,2.301 23.128,5.294 33.66,8.976 L 154.485,80.1774 c 10.87,-4.0956 22.631,-8.1709 35.429,-12.3559 l 2.836,-4.4101 c -27.28,5.553 -56.236,12.9706 -83.363,22.7 L 86.9004,32.5 H 58.7348 L 0.657899,164.922 C 0.432829,165.419 0.213529,165.918 0,166.42 c 0.949337,-0.332 1.90733,-0.655 2.86821,-0.978 0.27701,-0.092 0.55402,-0.182 0.83103,-0.274 0.71849,-0.237 1.43699,-0.471 2.16126,-0.699 0.28278,-0.089 0.56267,-0.179 0.84546,-0.265 0.82525,-0.257 1.6534,-0.514 2.48732,-0.762 0.15004,-0.046 0.2972,-0.093 0.44725,-0.136 z M 64.5434,77.6346 75.1332,100.254 c -10.2407,4.88 -19.9101,10.185 -28.7629,15.949 z"
       fill="white"
       id="path1"
       style="fill:#241c1c" />
    <mask
       id="mask0_3252_53672"
       maskUnits="userSpaceOnUse"
       x="0"
       y="32"
       width="193"
       height="135">
      <path
         d="M 149.721,68.8057 134.488,32.5 h -29.865 l 18.323,43.7002 c 13.176,-3.9946 22.178,-6.2949 26.772,-7.3945 z m -33.019,34.7383 c -5.632,3.184 -18.6087,11.109 -29.6198,22.23 l 12.1509,25.953 c 13.0769,0.147 26.1169,1.036 38.8019,2.669 z M 9.6463,163.306 c 2.092,-0.623 4.21,-1.221 6.351,-1.792 0.0837,-0.023 0.1645,-0.044 0.2482,-0.067 1.0244,-0.274 2.0545,-0.539 3.0875,-0.802 0.0519,-0.014 0.1068,-0.026 0.1587,-0.04 2.2132,-0.557 4.4524,-1.091 6.7088,-1.596 5.2805,-1.184 10.6736,-2.226 16.1561,-3.12 22.4638,-29.212 48.1767,-48.249 86.6114,-65.3184 l 28.036,66.8704 c 11.808,2.301 23.128,5.294 33.66,8.976 L 154.485,80.1774 c 10.87,-4.0956 22.631,-8.1709 35.429,-12.3559 l 2.836,-4.4101 c -27.28,5.553 -56.236,12.9706 -83.363,22.7 L 86.9004,32.5 H 58.7348 L 0.657899,164.922 C 0.432829,165.419 0.213529,165.918 0,166.42 c 0.949337,-0.332 1.90733,-0.655 2.86821,-0.978 0.27701,-0.092 0.55402,-0.182 0.83103,-0.274 0.71849,-0.237 1.43699,-0.471 2.16126,-0.699 0.28278,-0.089 0.56267,-0.179 0.84545,-0.265 0.82526,-0.257 1.65341,-0.514 2.48733,-0.762 0.15004,-0.046 0.2972,-0.093 0.44725,-0.136 z M 64.5434,77.6346 75.1332,100.254 c -10.2407,4.88 -19.9101,10.185 -28.7629,15.949 z"
         fill="url(#paint0_linear_3252_53672)"
         id="path2" />
    </mask>
    <g
       mask="url(#mask0_3252_53672)"
       id="g3"
       style="fill:#241c1c">
      <path
         opacity="0.1"
         d="m 197.632,74.112 1.889,-14.1905 C 172.35,64.1952 27.6277,87.5813 0.216325,166.472 14.0456,161.826 27.1101,157.962 41.8158,156.13 86.7568,100.749 124.293,89.7459 197.632,74.112 Z"
         fill="white"
         id="path3"
         style="fill:#241c1c" />
    </g>
    <path
       d="m 189.938,67.8538 2.645,-4.3294 C 166.854,68.8159 31.4762,95.0328 0.216797,166.227 13.2015,161.176 28.3503,158.29 42.2968,155.885 82.6936,101.046 149.3,81.8041 189.938,67.8538 Z"
       fill="white"
       id="path4"
       style="fill:#241c1c" />
    <path
       d="M 265.55,147.282 V 92.4822 h -20.1 v -15.2 h 56.1 v 15.2 h -20.2 v 54.7998 z m 49.98,1.2 c -5.633,0 -10.1,-1.483 -13.4,-4.45 -3.266,-3 -4.9,-7.016 -4.9,-12.05 0,-3.3 0.867,-6.2 2.6,-8.7 1.767,-2.5 4.2,-4.433 7.3,-5.8 3.134,-1.4 6.767,-2.1 10.9,-2.1 2.067,0 4.1,0.167 6.1,0.5 2.034,0.3 3.7,0.734 5,1.3 v -2.9 c 0,-2.166 -0.75,-3.833 -2.25,-5 -1.466,-1.2 -3.55,-1.8 -6.25,-1.8 -2.533,0 -5.133,0.45 -7.8,1.35 -2.633,0.9 -5.433,2.284 -8.4,4.15 l -4.6,-11.5 c 3.167,-2.0998 6.65,-3.6998 10.45,-4.7998 3.834,-1.1333 7.75,-1.7 11.75,-1.7 7.367,0 12.867,1.6834 16.5,5.0498 3.667,3.334 5.5,8.35 5.5,15.05 v 32.2 h -14.9 v -3.7 c -1.533,1.6 -3.466,2.817 -5.8,3.65 -2.3,0.834 -4.9,1.25 -7.8,1.25 z m 3.9,-12.5 c 1.867,0 3.617,-0.283 5.25,-0.85 1.667,-0.6 3.15,-1.45 4.45,-2.55 v -4.2 c -1.233,-0.466 -2.583,-0.816 -4.05,-1.05 -1.466,-0.233 -2.983,-0.35 -4.55,-0.35 -2.7,0 -4.816,0.434 -6.35,1.3 -1.5,0.834 -2.25,2.034 -2.25,3.6 0,1.3 0.65,2.317 1.95,3.05 1.3,0.7 3.15,1.05 5.55,1.05 z m 33.713,11.3 V 96.1822 h 15 v 51.0998 z m 7.5,-55.5998 c -2.333,0 -4.35,-0.85 -6.05,-2.55 -1.7,-1.7 -2.55,-3.7166 -2.55,-6.05 0,-2.3 0.833,-4.2666 2.5,-5.9 1.667,-1.6666 3.7,-2.5 6.1,-2.5 2.467,0 4.517,0.8167 6.15,2.45 1.633,1.6 2.45,3.5834 2.45,5.95 0,2.4 -0.833,4.4334 -2.5,6.1 -1.667,1.6667 -3.7,2.5 -6.1,2.5 z m 28.376,55.5998 -14.8,-51.0998 h 14.8 l 5.1,19.6998 c 0.233,0.9 0.483,2.117 0.75,3.65 0.3,1.5 0.55,2.884 0.75,4.15 0.266,-1.2 0.566,-2.566 0.9,-4.1 0.366,-1.566 0.666,-2.8 0.9,-3.7 l 5,-19.6998 h 13.4 l 4.9,19.6998 c 0.233,0.9 0.533,2.134 0.9,3.7 0.366,1.534 0.666,2.9 0.9,4.1 0.2,-1.266 0.433,-2.65 0.7,-4.15 0.3,-1.5 0.566,-2.716 0.8,-3.65 l 5.4,-19.6998 h 14.8 l -15,51.0998 h -13.2 l -5,-22.4 c -0.2,-0.866 -0.484,-2.166 -0.85,-3.9 -0.367,-1.766 -0.684,-3.3 -0.95,-4.6 -0.234,1.3 -0.55,2.834 -0.95,4.6 -0.4,1.734 -0.7,3.034 -0.9,3.9 l -5.05,22.4 z m 75.379,1.2 c -5.634,0 -10.1,-1.483 -13.4,-4.45 -3.267,-3 -4.9,-7.016 -4.9,-12.05 0,-3.3 0.866,-6.2 2.6,-8.7 1.766,-2.5 4.2,-4.433 7.3,-5.8 3.133,-1.4 6.766,-2.1 10.9,-2.1 2.066,0 4.1,0.167 6.1,0.5 2.033,0.3 3.7,0.734 5,1.3 v -2.9 c 0,-2.166 -0.75,-3.833 -2.25,-5 -1.467,-1.2 -3.55,-1.8 -6.25,-1.8 -2.534,0 -5.134,0.45 -7.8,1.35 -2.634,0.9 -5.434,2.284 -8.4,4.15 l -4.6,-11.5 c 3.166,-2.0998 6.65,-3.6998 10.45,-4.7998 3.833,-1.1333 7.75,-1.7 11.75,-1.7 7.366,0 12.866,1.6834 16.5,5.0498 3.666,3.334 5.5,8.35 5.5,15.05 v 32.2 h -14.9 v -3.7 c -1.534,1.6 -3.467,2.817 -5.8,3.65 -2.3,0.834 -4.9,1.25 -7.8,1.25 z m 3.9,-12.5 c 1.866,0 3.616,-0.283 5.25,-0.85 1.666,-0.6 3.15,-1.45 4.45,-2.55 v -4.2 c -1.234,-0.466 -2.584,-0.816 -4.05,-1.05 -1.467,-0.233 -2.984,-0.35 -4.55,-0.35 -2.7,0 -4.817,0.434 -6.35,1.3 -1.5,0.834 -2.25,2.034 -2.25,3.6 0,1.3 0.65,2.317 1.95,3.05 1.3,0.7 3.15,1.05 5.55,1.05 z m 33.71,11.3 V 96.1822 h 15 v 4.6998 c 1.666,-1.9664 3.666,-3.4331 6,-4.3998 2.333,-1 5,-1.5 8,-1.5 5.4,0 9.683,1.6834 12.85,5.0498 3.166,3.367 4.75,7.95 4.75,13.75 v 33.5 h -15 v -26.1 c 0,-4.266 -0.6,-7.283 -1.8,-9.05 -1.167,-1.766 -3.2,-2.65 -6.1,-2.65 -3.034,0 -5.25,0.917 -6.65,2.75 -1.367,1.834 -2.05,4.75 -2.05,8.75 v 26.3 z m 67.205,0 27.9,-69.9998 h 15.1 l 28,69.9998 h -17.3 l -5.2,-13.3 h -26.1 l -5.1,13.3 z m 27.7,-27.9 h 15.4 l -5.7,-14 c -0.2,-0.466 -0.433,-0.983 -0.7,-1.55 -0.233,-0.6 -0.466,-1.2 -0.7,-1.8 -0.233,-0.633 -0.433,-1.216 -0.6,-1.75 -0.166,0.534 -0.366,1.117 -0.6,1.75 -0.233,0.6 -0.483,1.2 -0.75,1.8 -0.233,0.567 -0.45,1.084 -0.65,1.55 z m 46.926,27.9 V 77.2822 h 15.8 v 69.9998 z m 36.644,0 27.9,-69.9998 h 15.1 l 28,69.9998 h -17.3 l -5.2,-13.3 h -26.1 l -5.1,13.3 z m 27.7,-27.9 h 15.4 l -5.7,-14 c -0.2,-0.466 -0.434,-0.983 -0.7,-1.55 -0.234,-0.6 -0.467,-1.2 -0.7,-1.8 -0.234,-0.633 -0.434,-1.216 -0.6,-1.75 -0.167,0.534 -0.367,1.117 -0.6,1.75 -0.234,0.6 -0.484,1.2 -0.75,1.8 -0.234,0.567 -0.45,1.084 -0.65,1.55 z m 67.944,29.1 c -4.933,0 -9.2,-1.083 -12.8,-3.25 -3.6,-2.166 -6.383,-5.25 -8.35,-9.25 -1.966,-4 -2.95,-8.733 -2.95,-14.2 0,-5.433 0.984,-10.15 2.95,-14.15 2,-4.033 4.8,-7.15 8.4,-9.3498 3.634,-2.2 7.884,-3.3 12.75,-3.3 5.867,0 10.7,1.3667 14.5,4.1 3.834,2.7338 6.6,6.7998 8.3,12.1998 l -14.3,4.7 c -0.8,-2.1 -1.916,-3.716 -3.35,-4.85 -1.433,-1.166 -3.083,-1.75 -4.95,-1.75 -2.633,0 -4.816,1.167 -6.55,3.5 -1.7,2.334 -2.55,5.3 -2.55,8.9 0,3.6 0.834,6.55 2.5,8.85 1.667,2.3 3.8,3.45 6.4,3.45 2,0 3.717,-0.6 5.15,-1.8 1.434,-1.233 2.55,-3.066 3.35,-5.5 l 14.3,4.1 c -1.7,5.9 -4.45,10.317 -8.25,13.25 -3.8,2.9 -8.65,4.35 -14.55,4.35 z m 45.439,0 c -5.634,0 -10.1,-1.483 -13.4,-4.45 -3.267,-3 -4.9,-7.016 -4.9,-12.05 0,-3.3 0.866,-6.2 2.6,-8.7 1.766,-2.5 4.2,-4.433 7.3,-5.8 3.133,-1.4 6.766,-2.1 10.9,-2.1 2.066,0 4.1,0.167 6.1,0.5 2.033,0.3 3.7,0.734 5,1.3 v -2.9 c 0,-2.166 -0.75,-3.833 -2.25,-5 -1.467,-1.2 -3.55,-1.8 -6.25,-1.8 -2.534,0 -5.134,0.45 -7.8,1.35 -2.634,0.9 -5.434,2.284 -8.4,4.15 l -4.6,-11.5 c 3.166,-2.0998 6.65,-3.6998 10.45,-4.7998 3.833,-1.1333 7.75,-1.7 11.75,-1.7 7.366,0 12.866,1.6834 16.5,5.0498 3.666,3.334 5.5,8.35 5.5,15.05 v 32.2 h -14.9 v -3.7 c -1.534,1.6 -3.467,2.817 -5.8,3.65 -2.3,0.834 -4.9,1.25 -7.8,1.25 z m 3.9,-12.5 c 1.866,0 3.616,-0.283 5.25,-0.85 1.666,-0.6 3.15,-1.45 4.45,-2.55 v -4.2 c -1.234,-0.466 -2.584,-0.816 -4.05,-1.05 -1.467,-0.233 -2.984,-0.35 -4.55,-0.35 -2.7,0 -4.817,0.434 -6.35,1.3 -1.5,0.834 -2.25,2.034 -2.25,3.6 0,1.3 0.65,2.317 1.95,3.05 1.3,0.7 3.15,1.05 5.55,1.05 z m 51.917,12.5 c -6.634,0 -11.8,-2.333 -15.5,-7 -3.667,-4.7 -5.5,-11.3 -5.5,-19.8 0,-5.233 0.9,-9.85 2.7,-13.85 1.8,-4.033 4.283,-7.183 7.45,-9.4498 3.2,-2.2666 6.883,-3.4 11.05,-3.4 4.266,0 7.6,1.7 10,5.0998 V 81.7822 l 15,-6.7 v 72.1998 h -15 v -4.3 c -1.834,3.667 -5.234,5.5 -10.2,5.5 z m 2.6,-14.5 c 1.966,0 3.516,-0.216 4.65,-0.65 1.133,-0.466 2.116,-1.216 2.95,-2.25 v -18.4 c -0.834,-1 -1.934,-1.783 -3.3,-2.35 -1.367,-0.566 -2.8,-0.85 -4.3,-0.85 -2.734,0 -4.85,1.05 -6.35,3.15 -1.5,2.067 -2.25,5.084 -2.25,9.05 0,2.767 0.316,5.067 0.95,6.9 0.633,1.8 1.583,3.15 2.85,4.05 1.266,0.9 2.866,1.35 4.8,1.35 z m 54.491,14.5 c -5.066,0 -9.433,-1.066 -13.1,-3.2 -3.633,-2.133 -6.433,-5.2 -8.4,-9.2 -1.933,-4 -2.9,-8.8 -2.9,-14.4 0,-5.433 0.984,-10.15 2.95,-14.15 2,-4 4.817,-7.083 8.45,-9.2498 3.667,-2.2 8,-3.3 13,-3.3 4.334,0 8.234,0.8834 11.7,2.65 3.5,1.7334 6.267,4.3998 8.3,7.9998 2.067,3.567 3.1,8.084 3.1,13.55 0,0.934 -0.016,2.1 -0.05,3.5 -0.033,1.367 -0.15,2.734 -0.35,4.1 h -32.5 c 0,1.834 0.4,3.434 1.2,4.8 0.8,1.334 1.934,2.367 3.4,3.1 1.467,0.734 3.2,1.1 5.2,1.1 2.6,0 4.767,-0.416 6.5,-1.25 1.767,-0.833 3.467,-2.216 5.1,-4.15 l 8.6,8.6 c -2.4,2.9 -5.25,5.217 -8.55,6.95 -3.3,1.7 -7.183,2.55 -11.65,2.55 z m -9.6,-32.9 h 18.4 c -0.266,-1.766 -0.783,-3.233 -1.55,-4.4 -0.766,-1.166 -1.783,-2.033 -3.05,-2.6 -1.266,-0.6 -2.8,-0.9 -4.6,-0.9 -2.433,0 -4.483,0.7 -6.15,2.1 -1.666,1.4 -2.683,3.334 -3.05,5.8 z m 39.634,31.7 V 96.1822 h 15 v 4.6998 c 1.766,-2.0998 3.583,-3.5998 5.45,-4.4998 1.866,-0.9333 4.016,-1.4 6.45,-1.4 3.066,0 5.6,0.5834 7.6,1.75 2.032,1.1667 3.602,2.95 4.702,5.3498 1.76,-2.2998 4.01,-4.0498 6.75,-5.2498 2.73,-1.2333 5.85,-1.85 9.35,-1.85 6.76,0 11.73,1.6834 14.9,5.0498 3.2,3.367 4.8,8.65 4.8,15.85 v 31.4 h -15 v -25.9 c 0,-4.266 -0.57,-7.316 -1.7,-9.15 -1.14,-1.833 -3.04,-2.75 -5.7,-2.75 -1.87,0 -3.37,0.367 -4.5,1.1 -1.1,0.734 -1.9,1.934 -2.4,3.6 -0.47,1.667 -0.7,3.9 -0.7,6.7 v 26.4 h -15.002 v -25.9 c 0,-4.266 -0.567,-7.316 -1.7,-9.15 -1.134,-1.833 -3.034,-2.75 -5.7,-2.75 -2.8,0 -4.767,0.85 -5.9,2.55 -1.134,1.7 -1.7,4.65 -1.7,8.85 v 26.4 z m 89.982,19.4 7.7,-20 -19.3,-50.4998 h 15.6 l 10.1,26.5998 c 0.26,0.6 0.55,1.35 0.85,2.25 0.3,0.9 0.55,1.75 0.75,2.55 0.2,-0.8 0.45,-1.633 0.75,-2.5 0.33,-0.9 0.61,-1.666 0.85,-2.3 l 10,-26.5998 h 15.5 l -27.2,70.4998 z"
       fill="white"
       id="path5"
       style="fill:#241c1c" />
  </g>
  <defs
     id="defs6">
    <linearGradient
       id="paint0_linear_3252_53672"
       x1="133.67"
       y1="39.715698"
       x2="34.091702"
       y2="147.202"
       gradientUnits="userSpaceOnUse">
      <stop
         stop-color="#B67EFF"
         id="stop5" />
      <stop
         offset="1"
         stop-color="#FF6335"
         id="stop6" />
    </linearGradient>
    <clipPath
       id="clip0_3252_53672">
      <rect
         width="1100"
         height="200"
         fill="#ffffff"
         id="rect6"
         x="0"
         y="0" />
    </clipPath>
  </defs>
</svg>
